<?xml version="1.0" encoding="UTF-8" standalone="no"?>
<!-- Created with Inkscape (http://www.inkscape.org/) -->

<svg
   width="1000"
   height="1000"
   id="svg3864"
   version="1.1"
   inkscape:version="1.2 (dc2aedaf03, 2022-05-15)"
   sodipodi:docname="chess.svg"
   xmlns:inkscape="http://www.inkscape.org/namespaces/inkscape"
   xmlns:sodipodi="http://sodipodi.sourceforge.net/DTD/sodipodi-0.dtd"
   xmlns="http://www.w3.org/2000/svg"
   xmlns:svg="http://www.w3.org/2000/svg"
   xmlns:rdf="http://www.w3.org/1999/02/22-rdf-syntax-ns#"
   xmlns:cc="http://creativecommons.org/ns#"
   xmlns:dc="http://purl.org/dc/elements/1.1/">
  <defs
     id="defs3866" />
  <sodipodi:namedview
     id="base"
     pagecolor="#ffffff"
     bordercolor="#666666"
     borderopacity="1.0"
     inkscape:pageopacity="0.0"
     inkscape:pageshadow="2"
     inkscape:zoom="2.8284271"
     inkscape:cx="232.81491"
     inkscape:cy="824.13295"
     inkscape:document-units="px"
     inkscape:current-layer="layer1"
     showgrid="false"
     inkscape:window-width="1920"
     inkscape:window-height="1034"
     inkscape:window-x="0"
     inkscape:window-y="46"
     inkscape:window-maximized="1"
     inkscape:showpageshadow="2"
     inkscape:pagecheckerboard="0"
     inkscape:deskcolor="#d1d1d1" />
  <metadata
     id="metadata3869">
    <rdf:RDF>
      <cc:Work
         rdf:about="">
        <dc:format>image/svg+xml</dc:format>
        <dc:type
           rdf:resource="http://purl.org/dc/dcmitype/StillImage" />
      </cc:Work>
    </rdf:RDF>
  </metadata>
  <g
     inkscape:label="Ebene 1"
     inkscape:groupmode="layer"
     id="layer1"
     transform="translate(5.0786797,-4.6142867)">
    <g
       transform="matrix(0.7618153,0,0,0.7618153,-384.51773,1373.268)"
       id="g5030"
       style="display:inline">
      <g
         id="g5032">
        <g
           transform="translate(1141.3333,-680)"
           id="g5034"
           style="display:inline;fill:#f9f9f9">
          <path
             sodipodi:nodetypes="ccccc"
             inkscape:connector-curvature="0"
             id="path5036"
             d="m -499.90693,-467.39422 h 145.83752 l -42.88931,35.9884 H -560.5183 Z"
             style="fill:#f9f9f9;fill-opacity:1;stroke:none" />
          <path
             style="fill:#f9f9f9;fill-opacity:1;stroke:none"
             d="m -396.95872,-431.40582 h 163.49031 l -32.67424,45.6389 h -185.20639 z"
             id="path5038"
             inkscape:connector-curvature="0"
             sodipodi:nodetypes="ccccc" />
          <path
             sodipodi:nodetypes="ccccc"
             inkscape:connector-curvature="0"
             id="path5040"
             d="m -319.3267,-496.54682 h 132.49467 l -20.87121,29.1526 h -146.36617 z"
             style="fill:#f9f9f9;fill-opacity:1;stroke:none" />
          <path
             style="fill:#f9f9f9;fill-opacity:1;stroke:none"
             d="m -207.70324,-467.39422 h 147.269692 l -8.64005,35.9884 H -233.46841 Z"
             id="path5042"
             inkscape:connector-curvature="0"
             sodipodi:nodetypes="ccccc" />
          <path
             sodipodi:nodetypes="ccccc"
             inkscape:connector-curvature="0"
             id="path5044"
             d="m -266.14265,-385.76692 h 186.112122 l -14.480542,60.3158 h -214.81345 z"
             style="fill:#f9f9f9;fill-opacity:1;stroke:none" />
          <path
             style="fill:#f9f9f9;fill-opacity:1;stroke:none"
             d="M 526.03893,-467.39422 H 379.5449 l 43.54269,35.9884 H 586.6503 Z"
             id="path5046"
             inkscape:connector-curvature="0"
             sodipodi:nodetypes="ccccc" />
          <path
             sodipodi:nodetypes="ccccc"
             inkscape:connector-curvature="0"
             id="path5048"
             d="M 422.43421,-431.40582 H 258.9439 l 32.67424,45.6389 h 185.20639 z"
             style="fill:#f9f9f9;fill-opacity:1;stroke:none" />
          <path
             style="fill:#f9f9f9;fill-opacity:1;stroke:none"
             d="M 345.45557,-496.54682 H 212.30752 l 20.87121,29.1526 h 147.01955 z"
             id="path5050"
             inkscape:connector-curvature="0"
             sodipodi:nodetypes="ccccc" />
          <path
             sodipodi:nodetypes="ccccc"
             inkscape:connector-curvature="0"
             id="path5052"
             d="M 233.17873,-467.39422 H 86.667908 l 8.64005,35.9884 H 258.9439 Z"
             style="fill:#f9f9f9;fill-opacity:1;stroke:none" />
          <path
             style="fill:#f9f9f9;fill-opacity:1;stroke:none"
             d="M 291.61814,-385.76692 H 106.26489 l 14.48054,60.3158 h 214.05458 z"
             id="path5054"
             inkscape:connector-curvature="0"
             sodipodi:nodetypes="ccccc" />
          <path
             sodipodi:nodetypes="ccccc"
             inkscape:connector-curvature="0"
             id="path5056"
             d="M 79.668988,-496.54682 H -53.434628 l -6.99892,29.1526 H 86.667908 Z"
             style="fill:#f9f9f9;fill-opacity:1;stroke:none" />
          <path
             style="fill:#f9f9f9;fill-opacity:1;stroke:none"
             d="M 95.307958,-431.40582 H -69.073598 l -10.95693,45.6389 H 106.26489 Z"
             id="path5058"
             inkscape:connector-curvature="0"
             sodipodi:nodetypes="ccccc" />
          <path
             sodipodi:nodetypes="ccccc"
             inkscape:connector-curvature="0"
             id="path5060"
             d="m 120.74543,-325.45112 h -215.2565 l -19.597,81.6274 h 254.4505 z"
             style="fill:#f9f9f9;fill-opacity:1;stroke:none" />
        </g>
        <g
           transform="translate(1141.3333,-680)"
           id="g5062"
           style="display:inline;fill:#4d4d4d">
          <path
             sodipodi:nodetypes="ccccc"
             inkscape:connector-curvature="0"
             id="path5064"
             d="m -450.80835,-496.54682 h 131.48165 l -34.74271,29.1526 h -145.83752 z"
             style="fill:#4d4d4d;fill-opacity:1;stroke:none" />
          <path
             style="fill:#4d4d4d;fill-opacity:1;stroke:none"
             d="m -560.5183,-431.40582 h 163.55958 l -54.39032,45.6389 h -186.03393 z"
             id="path5066"
             inkscape:connector-curvature="0"
             sodipodi:nodetypes="ccccc" />
          <path
             sodipodi:nodetypes="ccccc"
             inkscape:connector-curvature="0"
             id="path5068"
             d="m -451.34904,-385.76692 h 185.20639 l -43.18187,60.3158 h -213.90609 z"
             style="fill:#4d4d4d;fill-opacity:1;stroke:none" />
          <path
             style="fill:#4d4d4d;fill-opacity:1;stroke:none"
             d="m -354.06941,-467.39422 h 146.36617 l -25.76517,35.9884 h -163.49031 z"
             id="path5070"
             inkscape:connector-curvature="0"
             sodipodi:nodetypes="ccccc" />
          <path
             sodipodi:nodetypes="ccccc"
             inkscape:connector-curvature="0"
             id="path5072"
             d="m -186.83203,-496.54682 h 133.397402 l -6.99892,29.1526 H -207.70324 Z"
             style="fill:#4d4d4d;fill-opacity:1;stroke:none" />
          <path
             style="fill:#4d4d4d;fill-opacity:1;stroke:none"
             d="m -233.46841,-431.40582 h 164.394812 l -10.95693,45.6389 H -266.14265 Z"
             id="path5074"
             inkscape:connector-curvature="0"
             sodipodi:nodetypes="ccccc" />
          <path
             sodipodi:nodetypes="ccccc"
             inkscape:connector-curvature="0"
             id="path5076"
             d="M -80.030528,-385.76692 H 106.26489 l 14.48054,60.3158 h -215.2565 z"
             style="fill:#4d4d4d;fill-opacity:1;stroke:none" />
          <path
             style="fill:#4d4d4d;fill-opacity:1;stroke:none"
             d="M -60.433548,-467.39422 H 86.667908 l 8.64005,35.9884 H -69.073598 Z"
             id="path5078"
             inkscape:connector-curvature="0"
             sodipodi:nodetypes="ccccc" />
          <path
             style="fill:#4d4d4d;fill-opacity:1;stroke:none"
             d="m -114.10807,-243.82372 h 254.4505 l 28.18878,117.4147 h -310.82806 z"
             id="path5080"
             inkscape:connector-curvature="0"
             sodipodi:nodetypes="ccccc" />
          <path
             sodipodi:nodetypes="ccccc"
             inkscape:connector-curvature="0"
             id="path5082"
             d="m -309.32452,-325.45112 h 214.81345 l -19.597,81.6274 H -367.764 Z"
             style="fill:#4d4d4d;fill-opacity:1;stroke:none" />
          <path
             style="fill:#4d4d4d;fill-opacity:1;stroke:none"
             d="M 476.94036,-496.54682 H 345.45557 l 34.74271,29.1526 h 145.84065 z"
             id="path5084"
             inkscape:connector-curvature="0"
             sodipodi:nodetypes="ccccc" />
          <path
             sodipodi:nodetypes="ccccc"
             inkscape:connector-curvature="0"
             id="path5086"
             d="M 586.6503,-431.40582 H 423.08759 l 54.39032,45.6389 h 186.03706 z"
             style="fill:#4d4d4d;fill-opacity:1;stroke:none" />
          <path
             style="fill:#4d4d4d;fill-opacity:1;stroke:none"
             d="M 477.48105,-385.76692 H 291.61814 l 43.18187,60.3158 h 214.55947 z"
             id="path5088"
             inkscape:connector-curvature="0"
             sodipodi:nodetypes="ccccc" />
          <path
             sodipodi:nodetypes="ccccc"
             inkscape:connector-curvature="0"
             id="path5090"
             d="M 380.19828,-467.39422 H 233.17873 l 25.76517,35.9884 h 164.14369 z"
             style="fill:#4d4d4d;fill-opacity:1;stroke:none" />
          <path
             style="fill:#4d4d4d;fill-opacity:1;stroke:none"
             d="M 334.80001,-325.45112 H 120.74543 l 19.597,81.6274 h 252.89706 z"
             id="path5092"
             inkscape:connector-curvature="0"
             sodipodi:nodetypes="ccccc" />
          <path
             sodipodi:nodetypes="ccccc"
             inkscape:connector-curvature="0"
             id="path5094"
             d="M 258.9439,-431.40582 H 95.307958 l 10.956932,45.6389 h 185.35325 z"
             style="fill:#4d4d4d;fill-opacity:1;stroke:none" />
          <path
             sodipodi:nodetypes="ccccc"
             inkscape:connector-curvature="0"
             id="path5096"
             d="M 212.30752,-496.54682 H 79.668988 l 6.99892,29.1526 H 233.17873 Z"
             style="fill:#4d4d4d;fill-opacity:1;stroke:none" />
        </g>
        <path
           style="display:inline;fill:#666666;fill-opacity:1;stroke:none"
           d="m 1555.0521,-1435.4063 c -15.7401,0 -28.5,12.7599 -28.5,28.5 0,6.217 1.9963,11.9718 5.375,16.6563 h -3.625 c -3.3318,0 -6,2.668 -6,6 0,3.332 2.6682,6.0312 6,6.0312 -3.3318,0 -6,2.668 -6,6 0,3.3321 2.6682,6.0313 6,6.0313 h 1.625 c 6.3436,13.4068 9.2189,30.8537 8.6562,49.625 -0.5966,19.9024 -5.0577,41.2798 -13.2812,60.8437 h -6.125 c -3.3318,0 -6.0313,2.6993 -6.0313,6.0313 0,3.332 2.6995,6 6.0313,6 h 0.7812 c -0.8044,2.0655 -1.6961,4.1662 -2.625,6.2812 1.0754,2.6288 2.1744,5.2289 3.2813,7.7188 h 1.7187 c 5.2804,0 9.5938,4.3614 9.5938,9.625 0,1.2822 -0.2565,2.5283 -0.7188,3.6562 h 0.9688 c 10.7586,0 19.5312,8.7347 19.5312,19.5 0,6.9641 -3.6824,13.0504 -9.1875,16.5 h 12.5313 62.1875 c 8.0099,0 14.4375,-6.4588 14.4375,-14.4687 0,-8.01 -6.4276,-14.4063 -14.4375,-14.4063 h -7.7188 c 3.2169,0 5.7813,-2.5958 5.7813,-5.8125 0,-3.2167 -2.5644,-5.8125 -5.7813,-5.8125 h -8.7812 c -4.0332,-7.795 -7.7417,-15.4586 -10.5938,-22.7812 h 0.7813 c 3.3318,0 6.0312,-2.668 6.0312,-6 0,-3.332 -2.6994,-6.0313 -6.0312,-6.0313 h -6.125 c -8.2236,-19.5639 -12.6847,-40.9413 -13.2813,-60.8437 -0.5627,-18.7713 2.3126,-36.2182 8.6563,-49.625 h 1.625 c 3.3318,0 6,-2.6992 6,-6.0313 0,-3.332 -2.6682,-6 -6,-6 3.3318,0 6,-2.6992 6,-6.0312 0,-3.332 -2.6682,-6 -6,-6 h -3.625 c 3.3786,-4.6845 5.375,-10.4393 5.375,-16.6563 0,-15.7401 -12.7599,-28.5 -28.5,-28.5 z"
           id="path5098"
           inkscape:connector-curvature="0"
           sodipodi:nodetypes="sscsscsscscssscccsscssccssscssccssscscsscsscss" />
        <path
           style="display:inline;fill:#666666;fill-opacity:1;stroke:none"
           d="m 755.08333,-1435.4063 c -15.74011,0 -28.5,12.7599 -28.5,28.5 0,6.217 1.99636,11.9718 5.375,16.6563 h -3.625 c -3.33182,0 -6,2.668 -6,6 0,3.332 2.66818,6.0312 6,6.0312 -3.33182,0 -6,2.668 -6,6 0,3.3321 2.66818,6.0313 6,6.0313 h 1.625 c 6.34366,13.4068 9.21894,30.8537 8.65625,49.625 -0.5966,19.9024 -5.05771,41.2798 -13.28125,60.8437 h -6.125 c -3.33182,0 -6.03125,2.6993 -6.03125,6.0313 0,3.332 2.69943,6 6.03125,6 h 0.78125 c -2.85208,7.3226 -6.56057,14.9862 -10.59375,22.7812 h -8.78125 c -3.21682,0 -5.78125,2.5958 -5.78125,5.8125 0,3.2167 2.56443,5.8125 5.78125,5.8125 h -7.71875 c -8.00991,0 -14.4375,6.3963 -14.4375,14.4063 0,8.0099 6.42759,14.4687 14.4375,14.4687 h 62.1875 38.125 c -5.25949,-3.3689 -8.75,-9.2437 -8.75,-15.9375 0,-10.4391 8.50543,-18.9062 18.9375,-18.9062 h 2 c -0.41552,-1.059 -0.6875,-2.2095 -0.6875,-3.4063 0,-0.7748 0.10098,-1.5266 0.28125,-2.25 h -4.21875 c -4.03318,-7.795 -7.74168,-15.4586 -10.59375,-22.7812 h 0.78125 c 3.33182,0 6.03125,-2.668 6.03125,-6 0,-3.332 -2.69943,-6.0313 -6.03125,-6.0313 h -6.125 c -8.22355,-19.5639 -12.68466,-40.9413 -13.28125,-60.8437 -0.56269,-18.7713 2.31258,-36.2182 8.65625,-49.625 h 1.625 c 3.33182,0 6,-2.6992 6,-6.0313 0,-3.332 -2.66818,-6 -6,-6 3.33182,0 6,-2.6992 6,-6.0312 0,-3.332 -2.66818,-6 -6,-6 h -3.625 c 3.37863,-4.6845 5.375,-10.4393 5.375,-16.6563 0,-15.7401 -12.75989,-28.5 -28.5,-28.5 z m 56.1875,214.7813 c -0.36389,0.5454 -0.5625,1.2284 -0.5625,1.9687 0,1.9497 1.44318,3.4063 3.375,3.4063 v 3.7812 c 0.77766,-0.9905 1.25,-2.2598 1.25,-3.625 0,-2.6031 -1.68584,-4.7879 -4.03125,-5.5312 -0.004,0.01 -0.0276,-0.01 -0.0312,0 z"
           id="path5100"
           inkscape:connector-curvature="0"
           sodipodi:nodetypes="sscsscsscscsssccsscsssccsscscccssscscsscsscsscsccscc" />
        <path
           style="display:inline;fill:#333333;fill-opacity:1;stroke:none"
           d="m 1388.3958,-1521.2813 v 19.4688 c 0,9.5713 6.6702,17.5098 15.625,19.5 -3.7784,0.069 -6.7812,3.1418 -6.7812,6.9375 0,3.839 3.0675,6.9375 6.9062,6.9375 -3.8387,0 -6.9062,3.0672 -6.9062,6.9062 0,3.8391 3.0675,6.9375 6.9062,6.9375 h 4.6563 c 12.6227,31.7455 16.503,63.9896 15.8125,95 -0.7185,32.2647 -6.183,64.6267 -13.0625,90.5625 h -4.0313 c -3.6724,0 -6.625,2.9524 -6.625,6.625 0,3.6727 2.9526,6.625 6.625,6.625 h 0.2813 c -2.2896,7.1477 -4.9893,14.3411 -7.8125,21.0938 h 0.4375 c 5.6786,0 10.3437,4.6648 10.3437,10.3437 0,1.5648 -0.4318,3.0372 -1.0625,4.375 h 8.8438 c 11.7429,0 21.3125,9.5323 21.3125,21.2813 0,7.7757 -4.1986,14.568 -10.4375,18.2812 h 28.125 74.625 c 9.1533,0 16.5312,-7.3467 16.5312,-16.5 0,-9.1532 -7.3779,-16.5 -16.5312,-16.5 h -9.8438 c 3.6758,0 6.5938,-2.9802 6.5938,-6.6562 0,-3.676 -2.918,-6.625 -6.5938,-6.625 h -3.7187 c -4.0215,-8.8993 -8.0899,-19.0332 -11.3125,-29.0938 h 0.2812 c 3.6725,0 6.625,-2.9523 6.625,-6.625 0,-3.6726 -2.9525,-6.625 -6.625,-6.625 h -4.0312 c -6.8795,-25.9358 -12.344,-58.2978 -13.0625,-90.5625 -0.6906,-31.0104 3.1898,-63.2545 15.8125,-95 h 4.6562 c 3.8388,0 6.9063,-3.0984 6.9063,-6.9375 0,-3.839 -3.0675,-6.9062 -6.9063,-6.9062 3.8388,0 6.9063,-3.0985 6.9063,-6.9375 0,-3.7957 -3.0028,-6.869 -6.7813,-6.9375 8.9549,-1.9902 15.625,-9.9287 15.625,-19.5 v -19.4688 h -13.6875 v 8.8125 c 0,5.54 -4.5744,10 -10.25,10 h -3.25 -3.25 c -5.6755,0 -10.25,-4.46 -10.25,-10 v -8.8125 h -15.0937 v 8.8125 c 0,5.54 -4.5745,10 -10.25,10 h -3.25 -3.25 c -5.6756,0 -10.25,-4.46 -10.25,-10 v -8.8125 h -15.0938 v 8.8125 c 0,5.54 -4.5744,10 -10.25,10 h -3.25 -3.25 c -5.6755,0 -10.25,-4.46 -10.25,-10 v -8.8125 z"
           id="path5102"
           inkscape:connector-curvature="0"
           sodipodi:nodetypes="cscscsscscsssccsscssccssscssccssscscsscscsccsscssccsscssccsscsscc" />
        <path
           style="display:inline;fill:#666666;fill-opacity:1;stroke:none"
           d="m 1319.6458,-1668.1563 c -17.9492,0 -32.5,14.5508 -32.5,32.5 0,3.0747 0.4522,6.0559 1.25,8.875 h -3.9062 v 9.4063 c 0,3.8778 -3.122,7 -7,7 -3.878,0 -7,-3.1222 -7,-7 v -9.4063 h -5.8125 c -4.2986,9.7075 -10.446,16.3747 -16.0313,23.9375 9.8314,11.1614 17.9587,24.1361 23.9063,38.3438 h -0.2188 c -4.0702,0 -7.3437,3.2733 -7.3437,7.3437 0,4.0705 3.2735,7.3438 7.3437,7.3438 -4.0702,0 -7.3437,3.3045 -7.3437,7.375 0,4.0705 3.2735,7.3437 7.3437,7.3437 h 7.75 c 17.1874,33.2229 20.6941,80.9148 17.3125,126.6875 -3.2641,44.1834 -12.9572,86.5596 -23,112.4375 h -2.6562 c -4.0702,0 -7.3438,3.2733 -7.3438,7.3438 0,3.8053 2.8639,6.9232 6.5625,7.3125 -6.3155,15.7601 -14.1092,31.9802 -23.25,45.6875 5.0504,0.7636 8.9688,5.155 8.9688,10.4062 0,1.6321 -0.4519,3.1474 -1.125,4.5313 h 11.9375 c 11.9943,0 21.7187,9.7617 21.7187,21.75 0,7.8423 -4.1702,14.7132 -10.4062,18.5312 h 48.914 90.836 c 10.1355,0 18.3125,-8.1457 18.3125,-18.2812 0,-10.1355 -8.177,-18.2813 -18.3125,-18.2813 h -18.125 c 4.0702,0 7.3437,-3.3045 7.3437,-7.375 0,-4.0704 -3.2735,-7.3437 -7.3437,-7.3437 h -6.1563 c -10.3235,-14.4733 -19.0066,-32.3293 -25.9375,-49.625 3.6986,-0.3893 6.5625,-3.5072 6.5625,-7.3125 0,-4.0705 -3.2735,-7.3438 -7.3437,-7.3438 h -2.6563 c -10.0427,-25.8779 -19.7359,-68.2541 -23,-112.4375 -3.3815,-45.7727 0.1251,-93.4646 17.3125,-126.6875 h 7.75 c 4.0703,0 7.3438,-3.2732 7.3438,-7.3437 0,-4.0705 -3.2735,-7.375 -7.3438,-7.375 4.0703,0 7.3438,-3.2733 7.3438,-7.3438 0,-4.0704 -3.2735,-7.3437 -7.3438,-7.3437 h -0.2187 c 5.9475,-14.2077 14.0748,-27.1824 23.9062,-38.3438 -5.5852,-7.5628 -11.7327,-14.23 -16.0312,-23.9375 h -5.8125 v 9.4063 c 0,3.8778 -3.122,7 -7,7 -3.878,0 -7,-3.1222 -7,-7 v -9.4063 h -3.9063 c 0.7979,-2.8191 1.25,-5.8003 1.25,-8.875 0,-17.9492 -14.5507,-32.5 -32.5,-32.5 z"
           id="path5104"
           inkscape:connector-curvature="0"
           sodipodi:nodetypes="ssccsssccccsscsscscssccscssccssscssccsscscsscssccccsssccss" />
        <path
           style="display:inline;fill:#333333;fill-opacity:1;stroke:none"
           d="m 862.02083,-1503.5938 c -0.77057,-0.1168 -1.03594,0.4328 -1.6875,1.9063 -2.78325,6.2945 -3.48798,14.0175 -3,18.5312 -5.26404,-0.09 -17.73871,10.485 -30.0625,22.2813 -13.47354,12.8969 -27.83912,30.5328 -32.9375,37.75 -3.88028,5.4929 -4.36558,12.2979 -0.59375,16.625 5.91477,6.7855 14.67983,13.7896 23.4375,17.4687 3.43546,1.4433 10.23216,2.0391 11.40625,-1.4375 1.02982,-3.0493 2.27638,-5.2694 3.78125,-7.25 3.97625,-5.2329 10.2681,-3.8955 14.59375,-3.1875 6.91423,1.1319 11.87524,2.7196 17.5,4.75 3.007,1.0856 5.70458,3.5823 1.3125,9.375 -2.722,3.5901 -7.16483,8.3421 -12,11.5313 -8.10737,5.3475 -12.73542,7.5984 -20.21875,12.5 -10.61818,6.955 -18.13627,19.6958 -11.15625,48.3437 4.16212,17.0825 13.60584,36.1987 21.65625,51.75 h -9.03125 c -3.67245,0 -6.625,2.9836 -6.625,6.6563 0,3.6727 2.95255,6.625 6.625,6.625 h 1.125 c -2.81141,7.405 -6.47005,15.7066 -11.3125,24.3125 h -10.75 c -3.54546,0 -6.375,2.8605 -6.375,6.4062 0,3.5458 2.82954,6.4063 6.375,6.4063 h -10.6875 c -8.82881,0 -15.9375,7.0775 -15.9375,15.9062 0,8.8288 7.10869,15.9375 15.9375,15.9375 h 77.9375 50.0625 c -6.42163,-3.7744 -10.75,-10.7367 -10.75,-18.7187 0,-11.9883 9.72438,-21.75 21.71875,-21.75 h 1.03125 c -0.6244,-1.2836 -1.03415,-2.6894 -1.09375,-4.1875 h -4.46875 c -4.84245,-8.6059 -8.50109,-16.9075 -11.3125,-24.3125 h 1.125 c 3.67245,0 6.625,-2.9523 6.625,-6.625 0,-3.6727 -2.95255,-6.6563 -6.625,-6.6563 h -8.40625 c 18.23412,-20.532 41.79894,-66.5654 50.4375,-103.875 5.5065,-23.7822 7.47686,-50.0117 0,-73.25 -5.06218,-15.7333 -15.23025,-31.0467 -28.9375,-40.2812 -19.13122,-12.8886 -53.47763,-17.921 -67.25,-16.2813 -3.28806,-2.6822 -6.25671,-4.8785 -9.34375,-6.375 -1.01675,-0.4928 -1.66266,-0.8049 -2.125,-0.875 z"
           id="path5106"
           inkscape:connector-curvature="0"
           sodipodi:nodetypes="sscsssssssssssscsssccsscsssccssccccssscssscss" />
        <path
           style="display:inline;fill:#666666;fill-opacity:1;stroke:none"
           d="m 1024.3958,-1598.5938 c -6.2398,0 -11.3125,3.4477 -11.3125,7.6875 0,2.2912 1.5014,4.3122 3.8438,5.7188 0.2662,9.2755 -2.0812,15.5663 -8,23.75 -5.2401,7.2451 -12.0998,15.1657 -16.15627,19.6562 -7.54824,8.356 -12.375,18.5685 -12.375,30.7188 0,12.7417 5.40705,24.2148 14.0625,32.25 h -5.875 c -4.16941,0 -7.53125,3.3616 -7.53125,7.5312 0,4.1697 3.36184,7.5313 7.53125,7.5313 -4.16941,0 -7.53125,3.3616 -7.53125,7.5312 0,4.1697 3.36184,7.5 7.53125,7.5 h 5.34375 c 5.00134,23.9387 7.04792,51.1113 6.40622,79.5625 -0.66907,29.6689 -4.26671,60.7241 -10.46872,90.875 h -13.40625 c -4.16941,0 -7.53125,3.3304 -7.53125,7.5 0,4.1697 3.36184,7.5313 7.53125,7.5313 h 1.65625 c -3.63096,11.7394 -7.64144,20.2776 -14.46875,30.3125 h -10.84375 c -4.16941,0 -7.53125,3.3616 -7.53125,7.5312 0,4.1697 3.36184,7.5313 7.53125,7.5313 h -10.4375 c -10.38252,0 -18.71875,8.3675 -18.71875,18.75 0,10.3825 8.33623,18.7187 18.71875,18.7187 h 82.03122 6.2813 c -6.2361,-3.818 -10.4063,-10.6889 -10.4063,-18.5312 0,-11.9883 9.7244,-21.75 21.7188,-21.75 h 11.9375 c -0.6774,-1.3874 -1.125,-2.8937 -1.125,-4.5313 0,-5.7822 4.7493,-10.5312 10.5312,-10.5312 h 2.3438 c 3.4347,-4.6742 6.6584,-9.5521 9.7187,-14.5938 -1.7369,-3.9836 -3.2616,-8.1951 -4.7187,-12.9062 h 1.6562 c 4.1694,0 7.5313,-3.3616 7.5313,-7.5313 0,-4.1696 -3.3619,-7.5 -7.5313,-7.5 h -13.4062 c -6.202,-30.1509 -9.7997,-61.2061 -10.4688,-90.875 -0.6416,-28.4512 1.4049,-55.6238 6.4063,-79.5625 h 5.3437 c 4.1694,0 7.5313,-3.3303 7.5313,-7.5 0,-4.1696 -3.3619,-7.5312 -7.5313,-7.5312 4.1694,0 7.5313,-3.3616 7.5313,-7.5313 0,-4.1696 -3.3619,-7.5312 -7.5313,-7.5312 h -5.875 c 8.6555,-8.0352 14.0625,-19.5083 14.0625,-32.25 0,-12.1503 -4.8267,-22.3628 -12.375,-30.7188 -4.0564,-4.4905 -10.9161,-12.4111 -16.1562,-19.6562 -5.9189,-8.1837 -8.2662,-14.4745 -8,-23.75 2.3423,-1.4066 3.8437,-3.4276 3.8437,-5.7188 0,-4.2398 -5.0726,-7.6875 -11.3125,-7.6875 z"
           id="path5108"
           inkscape:connector-curvature="0"
           sodipodi:nodetypes="sscssscsscsscscsssccsscsssccsscsscccssscscsscsscssscss" />
        <path
           style="fill:#333333;fill-opacity:1;stroke:none"
           d="m 1147.3268,-1741.4375 c -2.216,0 -4,1.784 -4,4 v 10.6875 h -11.1562 c -2.216,0 -4,1.784 -4,4 v 11.0938 c 0,2.2156 1.784,4 4,4 h 11.1562 v 13.25 h -6.125 c -8.31,0 -15,6.69 -15,14.9999 v 4.1563 h -20.625 c -5.9562,7.048 -17.4756,15.2603 -27.125,19.7812 10.7212,10.4907 21.2338,29.4558 27.9063,44.6875 h -1.6875 c -4.1173,0 -7.4063,3.3201 -7.4063,7.4375 0,4.1175 3.289,7.4375 7.4063,7.4375 -4.1173,0 -7.4063,3.3201 -7.4063,7.4375 0,4.1175 3.289,7.4375 7.4063,7.4375 h 8.6875 l -0.062,0.1563 c 19.5005,35.6492 24.1297,88.4471 20.8437,139.8437 -3.2749,51.2243 -14.4203,101.0332 -26.5937,131.0625 h -2.6875 c -4.1173,0 -7.4375,3.3201 -7.4375,7.4375 0,4.0854 3.271,7.3863 7.3437,7.4375 -9.2827,22.5347 -19.732,43.9271 -33.5,62.3438 h -3.9375 c -4.1694,0 -7.5312,3.3616 -7.5312,7.5312 0,4.1697 3.3618,7.5313 7.5312,7.5313 h -21.3437 c -10.3825,0 -18.7188,8.3675 -18.7188,18.75 0,10.3825 8.3363,18.7187 18.7188,18.7187 h 112.75 112.75 c 10.3825,0 18.7187,-8.3362 18.7187,-18.7187 0,-10.3825 -8.3362,-18.75 -18.7187,-18.75 h -21.3438 c 4.1694,0 7.5313,-3.3616 7.5313,-7.5313 0,-4.1696 -3.3619,-7.5312 -7.5313,-7.5312 h -3.9375 c -13.7679,-18.4167 -24.2172,-39.8091 -33.5,-62.3438 4.0728,-0.051 7.3438,-3.3521 7.3438,-7.4375 0,-4.1174 -3.3202,-7.4375 -7.4375,-7.4375 h -2.6875 c -12.1734,-30.0293 -23.3188,-79.8382 -26.5938,-131.0625 -3.2859,-51.3966 1.3432,-104.1945 20.8438,-139.8437 l -0.062,-0.1563 h 8.6875 c 4.1173,0 7.4062,-3.32 7.4062,-7.4375 0,-4.1174 -3.2889,-7.4375 -7.4062,-7.4375 4.1173,0 7.4062,-3.32 7.4062,-7.4375 0,-4.1174 -3.2889,-7.4375 -7.4062,-7.4375 h -1.6875 c 6.6725,-15.2317 17.1851,-34.1968 27.9062,-44.6875 -9.6494,-4.5209 -21.1687,-12.7332 -27.125,-19.7812 h -20.625 v -4.1563 c 0,-8.3099 -6.69,-14.9999 -15,-14.9999 h -6.125 v -13.25 h 11.1563 c 2.216,0 4,-1.7844 4,-4 v -11.0938 c 0,-2.216 -1.784,-4 -4,-4 h -11.1563 v -10.6875 c 0,-2.216 -1.784,-4 -4,-4 h -7.4062 -7.4063 z"
           id="path5110"
           inkscape:connector-curvature="0" />
      </g>
    </g>
    <g
       id="g1928"
       transform="translate(0,8)">
      <text
         xml:space="preserve"
         style="font-style:normal;font-weight:normal;font-size:200px;line-height:1.25;font-family:sans-serif;fill:#333333;fill-opacity:1;stroke:none"
         x="118.72141"
         y="908.77789"
         id="text884"><tspan
           sodipodi:role="line"
           id="tspan882"
           x="118.72141"
           y="908.77789"
           style="font-style:normal;font-variant:normal;font-weight:normal;font-stretch:normal;font-size:200px;font-family:'TeX Gyre Chorus';-inkscape-font-specification:'TeX Gyre Chorus';fill:#333333;fill-opacity:1"
           transform="translate(107.2902)">S<tspan
   style="fill:#666666;fill-opacity:1"
   id="tspan1804">n</tspan><tspan
   style="fill:#f9f9f9;fill-opacity:1"
   id="tspan1812">0</tspan>w<tspan
   style="fill:#666666;fill-opacity:1"
   id="tspan1824">fl</tspan><tspan
   style="fill:#f9f9f9;fill-opacity:1"
   id="tspan1832">4</tspan>k<tspan
   style="fill:#666666;fill-opacity:1"
   id="tspan1844">e</tspan></tspan></text>
      <text
         xml:space="preserve"
         style="font-style:normal;font-weight:normal;font-size:100px;line-height:1.25;font-family:sans-serif;fill:#333333;fill-opacity:1;stroke:none"
         x="91.648872"
         y="888.40955"
         id="text1921"><tspan
           sodipodi:role="line"
           id="tspan1919"
           x="91.648872"
           y="888.40955"
           style="font-style:normal;font-variant:normal;font-weight:normal;font-stretch:normal;font-size:100px;font-family:'TeX Gyre Chorus';-inkscape-font-specification:'TeX Gyre Chorus';fill:#f9f9f9;fill-opacity:1">2</tspan></text>
    </g>
  </g>
</svg>
