<?xml version="1.0" encoding="UTF-8" standalone="no"?>
<svg
   version="1.0"
   width="500"
   height="500"
   viewBox="0 0 375 375"
   preserveAspectRatio="xMidYMid meet"
   id="svg95"
   sodipodi:docname="images.svg"
   inkscape:version="1.1 (c68e22c387, 2021-05-23)"
   xmlns:inkscape="http://www.inkscape.org/namespaces/inkscape"
   xmlns:sodipodi="http://sodipodi.sourceforge.net/DTD/sodipodi-0.dtd"
   xmlns="http://www.w3.org/2000/svg"
   xmlns:svg="http://www.w3.org/2000/svg">
  <defs
     id="defs99" />
  <sodipodi:namedview
     id="namedview97"
     pagecolor="#ffffff"
     bordercolor="#666666"
     borderopacity="1.0"
     inkscape:pageshadow="2"
     inkscape:pageopacity="0.0"
     inkscape:pagecheckerboard="0"
     inkscape:document-units="px"
     showgrid="false"
     inkscape:zoom="2.61"
     inkscape:cx="113.21839"
     inkscape:cy="151.14943"
     inkscape:window-width="1920"
     inkscape:window-height="1010"
     inkscape:window-x="0"
     inkscape:window-y="70"
     inkscape:window-maximized="1"
     inkscape:current-layer="svg95"
     units="px" />
  <path
     d="m 15,43.5 c 0,0.3 10,15.5 22.2,33.8 12.2,18.2 22.2,34.1 22.2,35.2 0,1.1 -10,17 -22.2,35.2 C 25,166 15,181.2 15,181.5 c 0,0.3 7.6,0.5 16.8,0.5 H 48.7 L 71.5,147.8 C 84.1,128.9 94.3,113.1 94.3,112.5 94.3,111.9 84.1,96.1 71.5,77.2 L 48.7,43 H 31.8 C 22.6,43 15,43.2 15,43.5 Z"
     id="path85"
     style="fill:#453a62;fill-opacity:1;stroke:none;stroke-width:0.1" />
  <path
     d="m 61.6,44.2 c 0.4,0.7 10.7,16.1 22.8,34.3 12,18.1 21.9,33.4 21.9,34 0,0.6 -9.9,15.9 -21.9,34 -12.1,18.2 -22.4,33.6 -22.8,34.2 -0.6,1 3,1.3 16.3,1.3 h 17 l 14.3,-21.5 c 7.9,-11.8 14.6,-21.5 14.9,-21.5 0.3,0 7,9.7 14.9,21.5 l 14.3,21.5 h 16.9 c 9.2,0 16.8,-0.2 16.8,-0.5 0,-0.2 -20.7,-31.5 -46,-69.5 L 94.9,43 h -17 C 64.6,43 61,43.3 61.6,44.2 Z"
     id="path87"
     style="fill:#5e5086;fill-opacity:1;stroke:none;stroke-width:0.1" />
  <path
     d="m 135,84.5 c 0,0.3 3.2,5.3 7,11 l 7,10.5 h 31 31 V 95 84 h -38 c -20.9,0 -38,0.2 -38,0.5 z"
     id="path89"
     style="fill:#8f4e8b;fill-opacity:1;stroke:none;stroke-width:0.1" />
  <path
     d="m 159.6,121.7 c 0.9,1.6 4.2,6.5 7.2,11 l 5.5,8.3 h 19.4 19.3 v -11 -11 h -26.6 -26.6 z"
     id="path91"
     style="fill:#8f4e8b;fill-opacity:1;stroke:none;stroke-width:0.1" />
</svg>
