<?xml version="1.0" encoding="UTF-8" standalone="no"?>
<svg
   version="1.0"
   width="792.99561"
   height="158"
   viewBox="0 0 594.7467 118.5"
   preserveAspectRatio="xMidYMid meet"
   id="svg95"
   sodipodi:docname="Haskell.svg"
   inkscape:version="1.1 (c68e22c387, 2021-05-23)"
   inkscape:export-filename="/home/sirius/git/Snowflake/assets/wm-related.png"
   inkscape:export-xdpi="95.792061"
   inkscape:export-ydpi="95.792061"
   xmlns:inkscape="http://www.inkscape.org/namespaces/inkscape"
   xmlns:sodipodi="http://sodipodi.sourceforge.net/DTD/sodipodi-0.dtd"
   xmlns="http://www.w3.org/2000/svg"
   xmlns:svg="http://www.w3.org/2000/svg">
  <defs
     id="defs99" />
  <sodipodi:namedview
     id="namedview97"
     pagecolor="#ffffff"
     bordercolor="#666666"
     borderopacity="1.0"
     inkscape:pageshadow="2"
     inkscape:pageopacity="0.0"
     inkscape:pagecheckerboard="0"
     inkscape:document-units="px"
     showgrid="false"
     inkscape:zoom="1.1622656"
     inkscape:cx="360.93299"
     inkscape:cy="20.21913"
     inkscape:window-width="1920"
     inkscape:window-height="1010"
     inkscape:window-x="0"
     inkscape:window-y="70"
     inkscape:window-maximized="1"
     inkscape:current-layer="svg95"
     units="px"
     fit-margin-top="0"
     fit-margin-left="0"
     fit-margin-right="0"
     fit-margin-bottom="0"
     height="136.27351px" />
  <g
     id="g81597"
     transform="matrix(1.1417316,0,0,1.1417316,-6.8792328,-10.158481)"
     inkscape:export-filename="/home/sirius/git/Snowflake/assets/g81597.png"
     inkscape:export-xdpi="96"
     inkscape:export-ydpi="96">
    <g
       id="g81585">
      <g
         id="g1175"
         transform="matrix(0.68133186,0,0,0.68133186,2.3343886,16.370401)">
        <path
           d="m 5.4171459,-10.468175 c 0,0.3 10.0000001,15.5000005 22.2000001,33.8 12.2,18.2 22.2,34.1 22.2,35.2 0,1.1 -10,17 -22.2,35.2 -12.2,18.300005 -22.2000001,33.500005 -22.2000001,33.800005 0,0.3 7.6000001,0.5 16.8000001,0.5 h 16.9 l 22.8,-34.200005 c 12.6,-18.9 22.8,-34.7 22.8,-35.3 0,-0.6 -10.2,-16.4 -22.8,-35.3 l -22.8,-34.2 h -16.9 c -9.2,0 -16.8000001,0.2 -16.8000001,0.5 z"
           id="path85"
           style="fill:#453a62;fill-opacity:1;stroke:none;stroke-width:0.1" />
        <path
           d="m 52.017146,-9.7681745 c 0.4,0.7 10.7,16.1 22.8,34.2999995 12,18.1 21.9,33.4 21.9,34 0,0.6 -9.9,15.9 -21.9,34 -12.1,18.200005 -22.4,33.600005 -22.8,34.200005 -0.6,1 3,1.3 16.3,1.3 h 17 l 14.3,-21.5 c 7.900004,-11.800005 14.600004,-21.500005 14.900004,-21.500005 0.3,0 7,9.7 14.9,21.500005 l 14.3,21.5 h 16.9 c 9.2,0 16.8,-0.2 16.8,-0.5 0,-0.2 -20.7,-31.500005 -46,-69.500005 l -46.100004,-69 h -17 c -13.3,0 -16.9,0.3 -16.3,1.2000005 z"
           id="path87"
           style="fill:#5e5086;fill-opacity:1;stroke:none;stroke-width:0.1" />
        <path
           d="m 125.41715,30.531825 c 0,0.3 3.2,5.3 7,11 l 7,10.5 h 31 31 v -11 -11 h -38 c -20.9,0 -38,0.2 -38,0.5 z"
           id="path89"
           style="fill:#8f4e8b;fill-opacity:1;stroke:none;stroke-width:0.1" />
        <path
           d="m 150.01715,67.731825 c 0.9,1.6 4.2,6.5 7.2,11 l 5.5,8.3 h 19.4 19.3 v -11 -11 h -26.6 -26.6 z"
           id="path91"
           style="fill:#8f4e8b;fill-opacity:1;stroke:none;stroke-width:0.1" />
      </g>
    </g>
    <text
       xml:space="preserve"
       style="font-style:normal;font-weight:normal;font-size:45px;line-height:0.95;font-family:sans-serif;fill:#453a62;fill-opacity:1;stroke:none;stroke-width:0.75"
       x="150.06754"
       y="46.026505"
       id="text1861"><tspan
         sodipodi:role="line"
         id="tspan1859"
         style="font-style:normal;font-variant:normal;font-weight:normal;font-stretch:normal;font-size:45px;font-family:'JetBrainsMonoExtraBold Nerd Font';-inkscape-font-specification:'JetBrainsMonoExtraBold Nerd Font, Normal';font-variant-ligatures:normal;font-variant-caps:normal;font-variant-numeric:normal;font-variant-east-asian:normal;fill:#453a62;fill-opacity:1;stroke-width:0.75"
         x="150.06754"
         y="46.026505">Window-<tspan
   style="font-size:45px;fill:#5e5086;fill-opacity:1"
   id="tspan59724">Manager</tspan></tspan><tspan
         sodipodi:role="line"
         style="font-style:normal;font-variant:normal;font-weight:normal;font-stretch:normal;font-size:45px;font-family:'JetBrainsMonoExtraBold Nerd Font';-inkscape-font-specification:'JetBrainsMonoExtraBold Nerd Font, Normal';font-variant-ligatures:normal;font-variant-caps:normal;font-variant-numeric:normal;font-variant-east-asian:normal;fill:#8f4e8b;fill-opacity:1;stroke-width:0.75"
         x="150.06754"
         y="93.473495"
         id="tspan1863">Configurations</tspan></text>
  </g>
</svg>
